{"title":"The Detective(1968)MP-4[DaScubaDude]","uid":12357279,"size":1376895510,"categoryP":"video","categoryS":"movies","magnet":"?xt=urn:btih:3d526f74982f19aed9d76c84a036d2b45993d3f2&amp;dn=The+Detective%281968%29MP-4%5BDaScubaDude%5D&amp;tr=udp%3A%2F%2Ftracker.openbittorrent.com%3A80&amp;tr=udp%3A%2F%2Fopen.demonii.com%3A1337&amp;tr=udp%3A%2F%2Ftracker.coppersurfer.tk%3A6969&amp;tr=udp%3A%2F%2Fexodus.desync.com%3A6969","seeders":2,"leechers":0,"uploader":"dascuba","files":1,"time":1441489471,"description":"The Detective (1968)\nApproved  |  114 min  |  Crime, Drama  |  28 May 1968 (USA)\n6.5 Your rating:   -/10   Ratings: 6.5/10 from 1,872 users   \nReviews: 44 user | 18 critic\nPolice detective Joe Leland investigates the murder of a homosexual man. While investigating, he discovers links to official corruption in New York City in this drama that delves into a world of sex and drugs.\n\nDirector: Gordon Douglas\nWriters: Abby Mann (screenplay), Roderick Thorp (novel)\nStars: Frank Sinatra, Lee Remick, Ralph Meeker\n\n General\nComplete name                       : C:The DectectiveTHE_DETECTIVE_Title1.mp4\nFormat                                   : MPEG-4\nFormat profile                           : Base Media\nCodec ID                                 : isom\nFile size                                : 1.28 GiB\nDuration                                 : 1h 53mn\nOverall bit rate mode                    : Constant\nOverall bit rate                         : 1 614 Kbps\nMovie name                               : THE_DETECTIVE\nGenre                                    : Mystery\nWriting application                      : Lavf54.6.100\n\nVideo\nID                                       : 1\nFormat                                   : MPEG-4 Visual\nFormat settings, BVOP                    : No\nFormat settings, QPel                    : No\nFormat settings, GMC                     : No warppoints\nFormat settings, Matrix                  : Default (H.263)\nCodec ID                                 : 20\nDuration                                 : 1h 53mn\nBit rate mode                            : Constant\nBit rate                                 : 1 481 Kbps\nWidth                                    : 720 pixels\nHeight                                   : 404 pixels\nDisplay aspect ratio                     : 16:9\nFrame rate mode                          : Constant\nFrame rate                               : 29.970 fps\nColor space                              : YUV\nChroma subsampling                       : 4:2:0\nBit depth                                : 8 bits\nScan type                                : Progressive\nCompression mode                         : Lossy\nBits/(Pixel*Frame)                       : 0.170\nStream size                              : 1.18 GiB (92%)\nWriting library                          : Lavc54.23.100\n\nAudio\nID                                       : 2\nFormat                                   : MPEG Audio\nFormat version                           : Version 1\nFormat profile                           : Layer 3\nCodec ID                                 : 6B\nDuration                                 : 1h 53mn\nBit rate mode                            : Constant\nBit rate                                 : 128 Kbps\nChannel(s)                               : 2 channels\nSampling rate                            : 44.1 KHz\nCompression mode                         : Lossy\nStream size                              : 104 MiB (8%)\nWriting library                          : LAME3.99.5","torrent":{"xt":"urn:btih:3d526f74982f19aed9d76c84a036d2b45993d3f2","amp;dn":"The+Detective%281968%29MP-4%5BDaScubaDude%5D","amp;tr":["udp%3A%2F%2Ftracker.openbittorrent.com%3A80","udp%3A%2F%2Fopen.demonii.com%3A1337","udp%3A%2F%2Ftracker.coppersurfer.tk%3A6969","udp%3A%2F%2Fexodus.desync.com%3A6969"],"infoHash":"3d526f74982f19aed9d76c84a036d2b45993d3f2","infoHashBuffer":{"type":"Buffer","data":[61,82,111,116,152,47,25,174,217,215,108,132,160,54,210,180,89,147,211,242]},"announce":[],"urlList":[]}}